Light Display Narrow — SC.ufo
<glyph name="a.sc" format="1">
  <advance width="1047"/>
  <outline>
    <contour>
      <point x="657" y="1383" type="move" name="top"/>
    </contour>
    <contour>
      <point x="956" y="0" type="move" name="ogonek"/>
    </contour>
    <contour>
      <point x="461" y="-11" type="move" name="bottom"/>
    </contour>
    <contour>
      <point x="-82" y="35" type="line"/>
      <point x="-87" y="0" type="line"/>
      <point x="262" y="0" type="line"/>
      <point x="267" y="35" type="line"/>
      <point x="121" y="63" type="line"/>
      <point x="559" y="1101" type="line"/>
      <point x="618" y="1237" type="line"/>
      <point x="580" y="1228" type="line"/>
      <point x="604" y="1057" type="line"/>
      <point x="754" y="62" type="line"/>
      <point x="615" y="35" type="line"/>
      <point x="610" y="0" type="line"/>
      <point x="1027" y="0" type="line"/>
      <point x="1032" y="35" type="line"/>
      <point x="917" y="60" type="line"/>
      <point x="715" y="1292" type="line"/>
      <point x="585" y="1292" type="line"/>
      <point x="34" y="63" type="line"/>
    </contour>
    <contour>
      <point x="245" y="445" type="line"/>
      <point x="227" y="383" type="line"/>
      <point x="758" y="383" type="line"/>
      <point x="758" y="445" type="line"/>
    </contour>
  </outline>
</glyph>
<glyph name="ae.sc" format="1">
  <advance width="1584"/>
  <outline>
    <contour>
      <point x="996" y="1383" type="move" name="top"/>
    </contour>
    <contour>
      <point x="569" y="36" type="line"/>
      <point x="564" y="0" type="line"/>
      <point x="1421" y="0" type="line"/>
      <point x="1492" y="311" type="line"/>
      <point x="1425" y="324" type="line"/>
      <point x="1325" y="78" type="line"/>
      <point x="845" y="54" type="line"/>
      <point x="924" y="630" type="line"/>
      <point x="1311" y="616" type="line"/>
      <point x="1324" y="708" type="line"/>
      <point x="932" y="693" type="line"/>
      <point x="1008" y="1239" type="line"/>
      <point x="1408" y="1218" type="line"/>
      <point x="1447" y="1008" type="line"/>
      <point x="1502" y="1008" type="line"/>
      <point x="1512" y="1292" type="line"/>
      <point x="475" y="1292" type="line"/>
      <point x="470" y="1258" type="line"/>
      <point x="666" y="1229" type="line"/>
      <point x="21" y="60" type="line"/>
      <point x="-108" y="36" type="line"/>
      <point x="-115" y="0" type="line"/>
      <point x="262" y="0" type="line"/>
      <point x="265" y="36" type="line"/>
      <point x="131" y="60" type="line"/>
      <point x="338" y="470" type="line"/>
      <point x="753" y="470" type="line"/>
      <point x="690" y="62" type="line"/>
    </contour>
    <contour>
      <point x="377" y="536" type="line"/>
      <point x="735" y="1228" type="line"/>
      <point x="849" y="1228" type="line"/>
      <point x="760" y="536" type="line"/>
    </contour>
  </outline>
</glyph>
<glyph name="b.sc" format="1">
  <advance width="993"/>
  <outline>
    <contour>
      <point x="606" y="1383" type="move" name="top"/>
    </contour>
    <contour>
      <point x="422" y="0" type="move" name="bottom"/>
    </contour>
    <contour>
      <point x="423" y="-12" type="curve"/>
      <point x="701" y="-12"/>
      <point x="921" y="134"/>
      <point x="925" y="385" type="curve"/>
      <point x="927" y="564"/>
      <point x="824" y="657"/>
      <point x="657" y="665" type="curve"/>
      <point x="823" y="705"/>
      <point x="932" y="832"/>
      <point x="934" y="1002" type="curve"/>
      <point x="937" y="1193"/>
      <point x="840" y="1306"/>
      <point x="590" y="1306" type="curve"/>
      <point x="498" y="1306"/>
      <point x="431" y="1294"/>
      <point x="353" y="1292" type="curve"/>
      <point x="144" y="1292" type="line"/>
      <point x="139" y="1258" type="line"/>
      <point x="249" y="1230" type="line"/>
      <point x="89" y="62" type="line"/>
      <point x="-29" y="37" type="line"/>
      <point x="-34" y="1" type="line"/>
      <point x="177" y="1" type="line" smooth="yes"/>
      <point x="240" y="1"/>
      <point x="328" y="-12"/>
    </contour>
    <contour>
      <point x="222" y="74" type="curve"/>
      <point x="242" y="21" type="line"/>
      <point x="412" y="1257" type="line"/>
      <point x="377" y="1219" type="line"/>
      <point x="410" y="1246"/>
      <point x="514" y="1255"/>
      <point x="557" y="1255" type="curve"/>
      <point x="721" y="1255"/>
      <point x="781" y="1160"/>
      <point x="778" y="996" type="curve"/>
      <point x="775" y="802"/>
      <point x="663" y="690"/>
      <point x="507" y="690" type="curve"/>
      <point x="444" y="690"/>
      <point x="346" y="689"/>
      <point x="298" y="690" type="curve"/>
      <point x="290" y="631" type="line"/>
      <point x="330" y="632"/>
      <point x="396" y="632"/>
      <point x="489" y="632" type="curve"/>
      <point x="655" y="632"/>
      <point x="764" y="567"/>
      <point x="761" y="380" type="curve"/>
      <point x="758" y="190"/>
      <point x="627" y="37"/>
      <point x="430" y="37" type="curve"/>
      <point x="351" y="37"/>
      <point x="241" y="60"/>
    </contour>
  </outline>
</glyph>
<glyph name="c.sc" format="1">
  <advance width="985"/>
  <outline>
    <contour>
      <point x="679" y="1383" type="move" name="top"/>
    </contour>
    <contour>
      <point x="496" y="0" type="move" name="bottom"/>
    </contour>
    <contour>
      <point x="853" y="1202" type="curve"/>
      <point x="862" y="925" type="line"/>
      <point x="937" y="925" type="line"/>
      <point x="988" y="1258" type="line"/>
      <point x="926" y="1265"/>
      <point x="831" y="1309"/>
      <point x="671" y="1309" type="curve"/>
      <point x="338" y="1309"/>
      <point x="72" y="995"/>
      <point x="65" y="572" type="curve"/>
      <point x="62" y="333"/>
      <point x="134" y="-8"/>
      <point x="517" y="-8" type="curve"/>
      <point x="682" y="-8"/>
      <point x="793" y="50"/>
      <point x="858" y="66" type="curve"/>
      <point x="896" y="368" type="line"/>
      <point x="821" y="368" type="line"/>
      <point x="805" y="305"/>
      <point x="785" y="191"/>
      <point x="767" y="139" type="curve"/>
      <point x="734" y="81"/>
      <point x="617" y="47"/>
      <point x="545" y="47" type="curve"/>
      <point x="253" y="47"/>
      <point x="227" y="370"/>
      <point x="230" y="568" type="curve"/>
      <point x="235" y="906"/>
      <point x="374" y="1254"/>
      <point x="655" y="1254" type="curve"/>
      <point x="764" y="1254"/>
      <point x="819" y="1227"/>
    </contour>
  </outline>
</glyph>
<glyph name="d.sc" format="1">
  <advance width="1074"/>
  <outline>
    <contour>
      <point x="646" y="1383" type="move" name="top"/>
    </contour>
    <contour>
      <point x="433" y="0" type="move" name="bottom"/>
    </contour>
    <contour>
      <point x="461" y="-14" type="curve"/>
      <point x="849" y="-14"/>
      <point x="1069" y="349"/>
      <point x="1069" y="788" type="curve"/>
      <point x="1067" y="1081"/>
      <point x="950" y="1307"/>
      <point x="614" y="1307" type="curve"/>
      <point x="536" y="1307"/>
      <point x="454" y="1293"/>
      <point x="369" y="1292" type="curve"/>
      <point x="144" y="1292" type="line"/>
      <point x="139" y="1258" type="line"/>
      <point x="249" y="1231" type="line"/>
      <point x="89" y="63" type="line"/>
      <point x="-29" y="35" type="line"/>
      <point x="-34" y="1" type="line"/>
      <point x="167" y="1" type="line" smooth="yes"/>
      <point x="294" y="1"/>
      <point x="347" y="-14"/>
    </contour>
    <contour>
      <point x="457" y="41" type="curve"/>
      <point x="352" y="41"/>
      <point x="279" y="63"/>
      <point x="206" y="81" type="curve"/>
      <point x="243" y="30" type="line"/>
      <point x="412" y="1257" type="line"/>
      <point x="383" y="1218" type="line"/>
      <point x="426" y="1232"/>
      <point x="508" y="1251"/>
      <point x="580" y="1251" type="curve"/>
      <point x="824" y="1251"/>
      <point x="906" y="1083"/>
      <point x="906" y="784" type="curve"/>
      <point x="906" y="438"/>
      <point x="749" y="41"/>
    </contour>
  </outline>
</glyph>
<glyph name="e.sc" format="1">
  <advance width="988"/>
  <outline>
    <contour>
      <point x="620" y="1383" type="move" name="top"/>
    </contour>
    <contour>
      <point x="757" y="0" type="move" name="ogonek"/>
    </contour>
    <contour>
      <point x="453" y="0" type="move" name="bottom"/>
    </contour>
    <contour>
      <point x="914" y="1292" type="line"/>
      <point x="144" y="1292" type="line"/>
      <point x="139" y="1257" type="line"/>
      <point x="251" y="1230" type="line"/>
      <point x="90" y="62" type="line"/>
      <point x="-29" y="36" type="line"/>
      <point x="-34" y="0" type="line"/>
      <point x="824" y="0" type="line"/>
      <point x="895" y="311" type="line"/>
      <point x="829" y="325" type="line"/>
      <point x="728" y="78" type="line"/>
      <point x="247" y="55" type="line"/>
      <point x="326" y="629" type="line"/>
      <point x="711" y="616" type="line"/>
      <point x="723" y="708" type="line"/>
      <point x="335" y="693" type="line"/>
      <point x="410" y="1239" type="line"/>
      <point x="810" y="1219" type="line"/>
      <point x="849" y="1008" type="line"/>
      <point x="904" y="1008" type="line"/>
    </contour>
  </outline>
</glyph>
<glyph name="eng.sc" format="1">
  <advance width="1079"/>
  <outline>
    <contour>
      <point x="462" y="-303" type="curve"/>
      <point x="480" y="-339" type="line"/>
      <point x="729" y="-290"/>
      <point x="859" y="-154"/>
      <point x="890" y="70" type="curve"/>
      <point x="1050" y="1232" type="line"/>
      <point x="1171" y="1263" type="line"/>
      <point x="1174" y="1292" type="line"/>
      <point x="851" y="1292" type="line"/>
      <point x="847" y="1263" type="line"/>
      <point x="972" y="1232" type="line"/>
      <point x="847" y="173" type="line"/>
      <point x="781" y="350" type="line"/>
      <point x="398" y="1292" type="line"/>
      <point x="144" y="1292" type="line"/>
      <point x="140" y="1262" type="line"/>
      <point x="253" y="1237" type="line"/>
      <point x="90" y="60" type="line"/>
      <point x="-30" y="29" type="line"/>
      <point x="-33" y="0" type="line"/>
      <point x="290" y="0" type="line"/>
      <point x="294" y="29" type="line"/>
      <point x="169" y="60" type="line"/>
      <point x="298" y="1184" type="line"/>
      <point x="369" y="983" type="line"/>
      <point x="760" y="0" type="line"/>
      <point x="739" y="-152"/>
      <point x="593" y="-266"/>
    </contour>
  </outline>
</glyph>
<glyph name="eth.sc" format="1">
  <advance width="1084"/>
  <outline>
    <contour>
      <point x="68" y="691" type="line"/>
      <point x="60" y="623" type="line"/>
      <point x="660" y="623" type="line"/>
      <point x="669" y="691" type="line"/>
    </contour>
    <contour>
      <point x="471" y="-14" type="curve"/>
      <point x="859" y="-14"/>
      <point x="1078" y="349"/>
      <point x="1078" y="788" type="curve"/>
      <point x="1076" y="1081"/>
      <point x="960" y="1307"/>
      <point x="624" y="1307" type="curve"/>
      <point x="545" y="1307"/>
      <point x="463" y="1293"/>
      <point x="379" y="1292" type="curve"/>
      <point x="153" y="1292" type="line"/>
      <point x="148" y="1258" type="line"/>
      <point x="259" y="1231" type="line"/>
      <point x="99" y="63" type="line"/>
      <point x="-20" y="35" type="line"/>
      <point x="-25" y="1" type="line"/>
      <point x="177" y="1" type="line" smooth="yes"/>
      <point x="304" y="1"/>
      <point x="356" y="-14"/>
    </contour>
    <contour>
      <point x="467" y="41" type="curve"/>
      <point x="362" y="41"/>
      <point x="289" y="63"/>
      <point x="216" y="81" type="curve"/>
      <point x="252" y="30" type="line"/>
      <point x="422" y="1257" type="line"/>
      <point x="393" y="1218" type="line"/>
      <point x="436" y="1232"/>
      <point x="518" y="1251"/>
      <point x="589" y="1251" type="curve"/>
      <point x="834" y="1251"/>
      <point x="916" y="1083"/>
      <point x="915" y="784" type="curve"/>
      <point x="915" y="438"/>
      <point x="759" y="41"/>
    </contour>
  </outline>
</glyph>
<glyph name="ezh.sc" format="1">
  <advance width="1007"/>
  <outline>
    <contour>
      <point x="377" y="-14" type="curve"/>
      <point x="674" y="-14"/>
      <point x="888" y="133"/>
      <point x="893" y="416" type="curve"/>
      <point x="896" y="594"/>
      <point x="766" y="729"/>
      <point x="511" y="722" type="curve"/>
      <point x="515" y="698" type="line"/>
      <point x="1008" y="1260" type="line"/>
      <point x="990" y="1292" type="line"/>
      <point x="219" y="1292" type="line"/>
      <point x="169" y="986" type="line"/>
      <point x="229" y="981" type="line"/>
      <point x="326" y="1222" type="line"/>
      <point x="843" y="1239" type="line"/>
      <point x="689" y="1073" type="line"/>
      <point x="376" y="700" type="line"/>
      <point x="401" y="668" type="line"/>
      <point x="423" y="674"/>
      <point x="449" y="680"/>
      <point x="489" y="680" type="curve"/>
      <point x="647" y="680"/>
      <point x="732" y="560"/>
      <point x="730" y="398" type="curve"/>
      <point x="726" y="171"/>
      <point x="607" y="35"/>
      <point x="380" y="34" type="curve"/>
      <point x="280" y="35"/>
      <point x="228" y="64"/>
      <point x="189" y="87" type="curve"/>
      <point x="182" y="347" type="line"/>
      <point x="100" y="347" type="line"/>
      <point x="50" y="51" type="line"/>
      <point x="94" y="48"/>
      <point x="217" y="-14"/>
    </contour>
  </outline>
</glyph>
<glyph name="f.sc" format="1">
  <advance width="835"/>
  <outline>
    <contour>
      <point x="592" y="1383" type="move" name="top"/>
    </contour>
    <contour>
      <point x="-30" y="35" type="line"/>
      <point x="-35" y="0" type="line"/>
      <point x="438" y="0" type="line"/>
      <point x="443" y="35" type="line"/>
      <point x="248" y="63" type="line"/>
      <point x="326" y="633" type="line"/>
      <point x="692" y="623" type="line"/>
      <point x="703" y="707" type="line"/>
      <point x="334" y="692" type="line"/>
      <point x="411" y="1244" type="line"/>
      <point x="795" y="1225" type="line"/>
      <point x="836" y="1032" type="line"/>
      <point x="890" y="1032" type="line"/>
      <point x="899" y="1292" type="line"/>
      <point x="144" y="1292" type="line"/>
      <point x="139" y="1257" type="line"/>
      <point x="250" y="1230" type="line"/>
      <point x="89" y="62" type="line"/>
    </contour>
  </outline>
</glyph>
<glyph name="g.sc" format="1">
  <advance width="1093"/>
  <outline>
    <contour>
      <point x="698" y="1383" type="move" name="top"/>
    </contour>
    <contour>
      <point x="537" y="0" type="move" name="bottom"/>
    </contour>
    <contour>
      <point x="530" y="-14" type="curve"/>
      <point x="635" y="-14"/>
      <point x="728" y="23"/>
      <point x="796" y="46" type="curve"/>
      <point x="854" y="62"/>
      <point x="886" y="72"/>
      <point x="919" y="76" type="curve"/>
      <point x="991" y="619" type="line"/>
      <point x="648" y="619" type="line"/>
      <point x="642" y="571" type="line"/>
      <point x="834" y="550" type="line"/>
      <point x="780" y="121" type="line"/>
      <point x="723" y="77"/>
      <point x="625" y="41"/>
      <point x="539" y="41" type="curve"/>
      <point x="279" y="41"/>
      <point x="226" y="321"/>
      <point x="229" y="565" type="curve"/>
      <point x="235" y="913"/>
      <point x="370" y="1248"/>
      <point x="670" y="1248" type="curve"/>
      <point x="805" y="1248"/>
      <point x="862" y="1214"/>
      <point x="900" y="1186" type="curve"/>
      <point x="908" y="977" type="line"/>
      <point x="985" y="977" type="line"/>
      <point x="1029" y="1252" type="line"/>
      <point x="970" y="1252"/>
      <point x="905" y="1302"/>
      <point x="684" y="1302" type="curve"/>
      <point x="330" y="1302"/>
      <point x="71" y="991"/>
      <point x="64" y="562" type="curve"/>
      <point x="60" y="284"/>
      <point x="151" y="-14"/>
    </contour>
  </outline>
</glyph>
<glyph name="germandbls.sc" format="1">
  <advance width="1142"/>
  <outline>
    <contour>
      <point x="685" y="-18" type="curve"/>
      <point x="914" y="-18"/>
      <point x="1085" y="156"/>
      <point x="1088" y="389" type="curve"/>
      <point x="1092" y="606"/>
      <point x="940" y="729"/>
      <point x="747" y="772" type="curve"/>
      <point x="1034" y="1164" type="line"/>
      <point x="1044" y="1204" type="line"/>
      <point x="982" y="1251"/>
      <point x="892" y="1302"/>
      <point x="709" y="1302" type="curve"/>
      <point x="403" y="1302"/>
      <point x="227" y="1064"/>
      <point x="186" y="770" type="curve"/>
      <point x="88" y="62" type="line"/>
      <point x="-39" y="35" type="line"/>
      <point x="-44" y="0" type="line"/>
      <point x="237" y="0" type="line"/>
      <point x="357" y="873" type="line" smooth="yes"/>
      <point x="393" y="1134"/>
      <point x="480" y="1226"/>
      <point x="676" y="1225" type="curve"/>
      <point x="812" y="1224"/>
      <point x="893" y="1157"/>
      <point x="914" y="1132" type="curve"/>
      <point x="619" y="728" type="line"/>
      <point x="615" y="703" type="line"/>
      <point x="776" y="681"/>
      <point x="925" y="545"/>
      <point x="922" y="354" type="curve"/>
      <point x="920" y="205"/>
      <point x="853" y="31"/>
      <point x="698" y="31" type="curve"/>
      <point x="620" y="31"/>
      <point x="545" y="68"/>
      <point x="526" y="112" type="curve"/>
      <point x="515" y="295" type="line"/>
      <point x="446" y="295" type="line"/>
      <point x="408" y="50" type="line"/>
      <point x="482" y="49"/>
      <point x="536" y="-18"/>
    </contour>
  </outline>
</glyph>
<glyph name="gstroke.sc" format="1">
  <advance width="1096"/>
  <outline>
    <contour>
      <point x="700" y="1374" type="move" name="top"/>
    </contour>
    <contour>
      <point x="538" y="0" type="move" name="bottom"/>
    </contour>
    <contour>
      <point x="530" y="-14" type="curve"/>
      <point x="635" y="-14"/>
      <point x="728" y="23"/>
      <point x="796" y="46" type="curve"/>
      <point x="854" y="62"/>
      <point x="886" y="72"/>
      <point x="919" y="76" type="curve"/>
      <point x="994" y="658" type="line"/>
      <point x="650" y="658" type="line"/>
      <point x="645" y="610" type="line"/>
      <point x="837" y="589" type="line"/>
      <point x="780" y="121" type="line"/>
      <point x="723" y="77"/>
      <point x="625" y="41"/>
      <point x="539" y="41" type="curve"/>
      <point x="279" y="41"/>
      <point x="226" y="321"/>
      <point x="229" y="565" type="curve"/>
      <point x="235" y="913"/>
      <point x="370" y="1248"/>
      <point x="670" y="1248" type="curve"/>
      <point x="805" y="1248"/>
      <point x="862" y="1214"/>
      <point x="900" y="1186" type="curve"/>
      <point x="908" y="977" type="line"/>
      <point x="985" y="977" type="line"/>
      <point x="1029" y="1252" type="line"/>
      <point x="970" y="1252"/>
      <point x="905" y="1302"/>
      <point x="684" y="1302" type="curve"/>
      <point x="330" y="1302"/>
      <point x="71" y="991"/>
      <point x="64" y="562" type="curve"/>
      <point x="60" y="284"/>
      <point x="151" y="-14"/>
    </contour>
    <contour>
      <point x="600" y="359" type="line"/>
      <point x="590" y="289" type="line"/>
      <point x="1078" y="289" type="line"/>
      <point x="1087" y="359" type="line"/>
    </contour>
  </outline>
</glyph>
<glyph name="h.sc" format="1">
  <advance width="1149"/>
  <outline>
    <contour>
      <point x="718" y="1383" type="move" name="top"/>
    </contour>
    <contour>
      <point x="523" y="0" type="move" name="bottom"/>
    </contour>
    <contour>
      <point x="-30" y="35" type="line"/>
      <point x="-35" y="0" type="line"/>
      <point x="361" y="0" type="line"/>
      <point x="366" y="35" type="line"/>
      <point x="255" y="62" type="line"/>
      <point x="416" y="1230" type="line"/>
      <point x="529" y="1257" type="line"/>
      <point x="534" y="1292" type="line"/>
      <point x="144" y="1292" type="line"/>
      <point x="139" y="1257" type="line"/>
      <point x="258" y="1230" type="line"/>
      <point x="97" y="62" type="line"/>
    </contour>
    <contour>
      <point x="284" y="686" type="line"/>
      <point x="284" y="622" type="line"/>
      <point x="923" y="622" type="line"/>
      <point x="924" y="686" type="line"/>
    </contour>
    <contour>
      <point x="669" y="35" type="line"/>
      <point x="665" y="0" type="line"/>
      <point x="1061" y="0" type="line"/>
      <point x="1066" y="35" type="line"/>
      <point x="955" y="62" type="line"/>
      <point x="1117" y="1230" type="line"/>
      <point x="1228" y="1257" type="line"/>
      <point x="1232" y="1292" type="line"/>
      <point x="844" y="1292" type="line"/>
      <point x="839" y="1257" type="line"/>
      <point x="959" y="1230" type="line"/>
      <point x="797" y="62" type="line"/>
    </contour>
  </outline>
</glyph>
<glyph name="i.sc" format="1">
  <advance width="483"/>
  <outline>
    <contour>
      <point x="377" y="1383" type="move" name="top"/>
    </contour>
    <contour>
      <point x="328" y="0" type="move" name="ogonek"/>
    </contour>
    <contour>
      <point x="174" y="0" type="move" name="bottom"/>
    </contour>
    <contour>
      <point x="-14" y="35" type="line"/>
      <point x="-19" y="0" type="line"/>
      <point x="378" y="0" type="line"/>
      <point x="383" y="35" type="line"/>
      <point x="263" y="62" type="line"/>
      <point x="435" y="1230" type="line"/>
      <point x="556" y="1257" type="line"/>
      <point x="561" y="1292" type="line"/>
      <point x="171" y="1292" type="line"/>
      <point x="166" y="1257" type="line"/>
      <point x="276" y="1230" type="line"/>
      <point x="104" y="62" type="line"/>
    </contour>
  </outline>
</glyph>
<glyph name="j.sc" format="1">
  <advance width="502"/>
  <outline>
    <contour>
      <point x="226" y="-129" type="move" name="btm"/>
    </contour>
    <contour>
      <point x="374" y="1383" type="move" name="top"/>
    </contour>
    <contour>
      <point x="426" y="1231" type="curve"/>
      <point x="552" y="1257" type="line"/>
      <point x="557" y="1292" type="line"/>
      <point x="167" y="1292" type="line"/>
      <point x="162" y="1257" type="line"/>
      <point x="270" y="1230" type="line"/>
      <point x="231" y="897"/>
      <point x="163" y="386"/>
      <point x="120" y="120" type="curve"/>
      <point x="96" y="-25"/>
      <point x="61" y="-149"/>
      <point x="-121" y="-236" type="curve"/>
      <point x="-103" y="-272" type="line"/>
      <point x="108" y="-239"/>
      <point x="234" y="-117"/>
      <point x="267" y="97" type="curve"/>
      <point x="289" y="245"/>
      <point x="367" y="725"/>
    </contour>
  </outline>
</glyph>
<glyph name="k.sc" format="1">
  <advance width="1071"/>
  <outline>
    <contour>
      <point x="655" y="1383" type="move" name="top"/>
    </contour>
    <contour>
      <point x="521" y="0" type="move" name="bottom"/>
    </contour>
    <contour>
      <point x="-29" y="39" type="line"/>
      <point x="-34" y="0" type="line"/>
      <point x="363" y="0" type="line"/>
      <point x="368" y="39" type="line"/>
      <point x="248" y="68" type="line"/>
      <point x="414" y="1224" type="line"/>
      <point x="535" y="1254" type="line"/>
      <point x="540" y="1292" type="line"/>
      <point x="150" y="1292" type="line"/>
      <point x="145" y="1254" type="line"/>
      <point x="255" y="1224" type="line"/>
      <point x="90" y="68" type="line"/>
    </contour>
    <contour>
      <point x="279" y="520" type="line"/>
      <point x="281" y="436" type="line"/>
      <point x="483" y="662" type="line"/>
      <point x="539" y="725" type="line"/>
      <point x="987" y="1227" type="line"/>
      <point x="1099" y="1254" type="line"/>
      <point x="1104" y="1292" type="line"/>
      <point x="773" y="1292" type="line"/>
      <point x="768" y="1254" type="line"/>
      <point x="894" y="1227" type="line"/>
    </contour>
    <contour>
      <point x="771" y="0" type="curve"/>
      <point x="1006" y="0" type="line"/>
      <point x="1011" y="39" type="line"/>
      <point x="926" y="66" type="line"/>
      <point x="890" y="101"/>
      <point x="828" y="207"/>
      <point x="746" y="379" type="curve"/>
      <point x="689" y="499"/>
      <point x="596" y="706"/>
      <point x="553" y="766" type="curve"/>
      <point x="449" y="640" type="line"/>
      <point x="490" y="574"/>
      <point x="578" y="341"/>
      <point x="620" y="255" type="curve"/>
      <point x="687" y="118"/>
      <point x="731" y="2"/>
    </contour>
  </outline>
</glyph>
<glyph name="l.sc" format="1">
  <advance width="884"/>
  <outline>
    <contour>
      <point x="560" y="870" type="move" name="car"/>
    </contour>
    <contour>
      <point x="397" y="1383" type="move" name="top"/>
    </contour>
    <contour>
      <point x="442" y="0" type="move" name="bottom"/>
    </contour>
    <contour>
      <point x="-30" y="35" type="line"/>
      <point x="-35" y="0" type="line"/>
      <point x="762" y="0" type="line"/>
      <point x="843" y="352" type="line"/>
      <point x="777" y="365" type="line"/>
      <point x="662" y="71" type="line"/>
      <point x="254" y="50" type="line"/>
      <point x="417" y="1230" type="line"/>
      <point x="543" y="1257" type="line"/>
      <point x="548" y="1292" type="line"/>
      <point x="146" y="1292" type="line"/>
      <point x="141" y="1257" type="line"/>
      <point x="258" y="1230" type="line"/>
      <point x="96" y="62" type="line"/>
    </contour>
  </outline>
</glyph>
<glyph name="lslash.sc" format="1">
  <advance width="885"/>
  <outline>
    <contour>
      <point x="13" y="601" type="line"/>
      <point x="30" y="530" type="line"/>
      <point x="757" y="825" type="line"/>
      <point x="740" y="900" type="line"/>
    </contour>
    <contour>
      <point x="-29" y="35" type="line"/>
      <point x="-34" y="0" type="line"/>
      <point x="762" y="0" type="line"/>
      <point x="844" y="352" type="line"/>
      <point x="778" y="365" type="line"/>
      <point x="663" y="71" type="line"/>
      <point x="254" y="50" type="line"/>
      <point x="418" y="1230" type="line"/>
      <point x="544" y="1257" type="line"/>
      <point x="549" y="1292" type="line"/>
      <point x="147" y="1292" type="line"/>
      <point x="142" y="1257" type="line"/>
      <point x="259" y="1230" type="line"/>
      <point x="97" y="62" type="line"/>
    </contour>
  </outline>
</glyph>
<glyph name="m.sc" format="1">
  <advance width="1481"/>
  <outline>
    <contour>
      <point x="844" y="1383" type="move" name="top"/>
    </contour>
    <contour>
      <point x="633" y="0" type="move" name="bottom"/>
    </contour>
    <contour>
      <point x="-42" y="29" type="line"/>
      <point x="-45" y="-1" type="line"/>
      <point x="304" y="-1" type="line"/>
      <point x="308" y="29" type="line"/>
      <point x="162" y="57" type="line"/>
      <point x="372" y="942" type="line"/>
      <point x="436" y="1223" type="line"/>
      <point x="471" y="931" type="line"/>
      <point x="578" y="-1" type="line"/>
      <point x="683" y="-1" type="line"/>
      <point x="1056" y="944" type="line"/>
      <point x="1168" y="1215" type="line"/>
      <point x="1156" y="918" type="line"/>
      <point x="1113" y="54" type="line"/>
      <point x="965" y="29" type="line"/>
      <point x="961" y="-1" type="line"/>
      <point x="1402" y="-1" type="line"/>
      <point x="1405" y="28" type="line"/>
      <point x="1272" y="55" type="line"/>
      <point x="1328" y="1240" type="line"/>
      <point x="1460" y="1263" type="line"/>
      <point x="1464" y="1291" type="line"/>
      <point x="1140" y="1291" type="line"/>
      <point x="767" y="377" type="line"/>
      <point x="700" y="194" type="line"/>
      <point x="682" y="379" type="line"/>
      <point x="583" y="1291" type="line"/>
      <point x="247" y="1291" type="line"/>
      <point x="244" y="1263" type="line"/>
      <point x="373" y="1236" type="line"/>
      <point x="80" y="56" type="line"/>
    </contour>
  </outline>
</glyph>
<glyph name="n.sc" format="1">
  <advance width="1079"/>
  <outline>
    <contour>
      <point x="679" y="1383" type="move" name="top"/>
    </contour>
    <contour>
      <point x="554" y="0" type="move" name="bottom"/>
    </contour>
    <contour>
      <point x="-30" y="29" type="line"/>
      <point x="-33" y="0" type="line"/>
      <point x="290" y="0" type="line"/>
      <point x="294" y="29" type="line"/>
      <point x="169" y="60" type="line"/>
      <point x="305" y="1245" type="line"/>
      <point x="279" y="1238" type="line"/>
      <point x="369" y="983" type="line"/>
      <point x="759" y="0" type="line"/>
      <point x="880" y="0" type="line"/>
      <point x="1050" y="1232" type="line"/>
      <point x="1171" y="1263" type="line"/>
      <point x="1174" y="1292" type="line"/>
      <point x="851" y="1292" type="line"/>
      <point x="847" y="1263" type="line"/>
      <point x="972" y="1232" type="line"/>
      <point x="837" y="88" type="line"/>
      <point x="867" y="119" type="line"/>
      <point x="781" y="350" type="line"/>
      <point x="398" y="1292" type="line"/>
      <point x="144" y="1292" type="line"/>
      <point x="140" y="1262" type="line"/>
      <point x="253" y="1237" type="line"/>
      <point x="90" y="60" type="line"/>
    </contour>
  </outline>
</glyph>
<glyph name="o.sc" format="1">
  <advance width="1084"/>
  <outline>
    <contour>
      <point x="132" y="1165" type="move" name="topleft"/>
    </contour>
    <contour>
      <point x="569" y="589" type="move" name="center"/>
    </contour>
    <contour>
      <point x="486" y="0" type="move" name="bottom"/>
    </contour>
    <contour>
      <point x="679" y="1383" type="move" name="top"/>
    </contour>
    <contour>
      <point x="909" y="1420" type="move" name="topright"/>
    </contour>
    <contour>
      <point x="626" y="11" type="move" name="ogonek"/>
    </contour>
    <contour>
      <point x="479" y="-18" type="curve"/>
      <point x="843" y="-18"/>
      <point x="1072" y="349"/>
      <point x="1079" y="758" type="curve"/>
      <point x="1084" y="1070"/>
      <point x="961" y="1310"/>
      <point x="662" y="1310" type="curve"/>
      <point x="298" y="1310"/>
      <point x="69" y="952"/>
      <point x="62" y="542" type="curve"/>
      <point x="57" y="222"/>
      <point x="180" y="-18"/>
    </contour>
    <contour>
      <point x="491" y="33" type="curve"/>
      <point x="288" y="33"/>
      <point x="226" y="253"/>
      <point x="231" y="556" type="curve"/>
      <point x="237" y="923"/>
      <point x="400" y="1259"/>
      <point x="649" y="1259" type="curve"/>
      <point x="853" y="1259"/>
      <point x="914" y="1039"/>
      <point x="910" y="745" type="curve"/>
      <point x="904" y="377"/>
      <point x="741" y="33"/>
    </contour>
  </outline>
</glyph>
<glyph name="oe.sc" format="1">
  <advance width="1738"/>
  <outline>
    <contour>
      <point x="479" y="-18" type="curve"/>
      <point x="638" y="-18"/>
      <point x="775" y="64"/>
      <point x="875" y="193" type="curve"/>
      <point x="848" y="0" type="line"/>
      <point x="1574" y="0" type="line"/>
      <point x="1646" y="311" type="line"/>
      <point x="1580" y="325" type="line"/>
      <point x="1479" y="78" type="line"/>
      <point x="1010" y="55" type="line"/>
      <point x="1089" y="629" type="line"/>
      <point x="1462" y="616" type="line"/>
      <point x="1474" y="708" type="line"/>
      <point x="1097" y="693" type="line"/>
      <point x="1173" y="1239" type="line"/>
      <point x="1560" y="1219" type="line"/>
      <point x="1600" y="1008" type="line"/>
      <point x="1654" y="1008" type="line"/>
      <point x="1664" y="1292" type="line"/>
      <point x="1025" y="1292" type="line"/>
      <point x="998" y="1090" type="line"/>
      <point x="936" y="1225"/>
      <point x="825" y="1310"/>
      <point x="660" y="1310" type="curve"/>
      <point x="298" y="1310"/>
      <point x="69" y="952"/>
      <point x="62" y="542" type="curve"/>
      <point x="57" y="222"/>
      <point x="180" y="-18"/>
    </contour>
    <contour>
      <point x="491" y="33" type="curve"/>
      <point x="288" y="33"/>
      <point x="226" y="253"/>
      <point x="231" y="556" type="curve"/>
      <point x="237" y="923"/>
      <point x="400" y="1259"/>
      <point x="649" y="1259" type="curve"/>
      <point x="853" y="1259"/>
      <point x="914" y="1039"/>
      <point x="910" y="745" type="curve"/>
      <point x="904" y="377"/>
      <point x="741" y="33"/>
    </contour>
  </outline>
</glyph>
<glyph name="ohorn.sc" format="1">
  <advance width="1113"/>
  <outline>
    <contour>
      <point x="914" y="1226" type="curve"/>
      <point x="894" y="1169" type="line"/>
      <point x="1115" y="1159"/>
      <point x="1179" y="1271"/>
      <point x="1181" y="1377" type="curve"/>
      <point x="1181" y="1399"/>
      <point x="1172" y="1410"/>
      <point x="1149" y="1424" type="curve"/>
      <point x="1042" y="1417" type="line"/>
      <point x="1059" y="1410"/>
      <point x="1079" y="1402"/>
      <point x="1079" y="1409" type="curve"/>
      <point x="1078" y="1322"/>
      <point x="1052" y="1224"/>
    </contour>
    <contour>
      <point x="479" y="-18" type="curve"/>
      <point x="843" y="-18"/>
      <point x="1072" y="349"/>
      <point x="1079" y="758" type="curve"/>
      <point x="1084" y="1070"/>
      <point x="961" y="1310"/>
      <point x="662" y="1310" type="curve"/>
      <point x="298" y="1310"/>
      <point x="69" y="952"/>
      <point x="62" y="542" type="curve"/>
      <point x="57" y="222"/>
      <point x="180" y="-18"/>
    </contour>
    <contour>
      <point x="491" y="33" type="curve"/>
      <point x="288" y="33"/>
      <point x="226" y="253"/>
      <point x="231" y="556" type="curve"/>
      <point x="237" y="923"/>
      <point x="400" y="1259"/>
      <point x="649" y="1259" type="curve"/>
      <point x="853" y="1259"/>
      <point x="914" y="1039"/>
      <point x="910" y="745" type="curve"/>
      <point x="904" y="377"/>
      <point x="741" y="33"/>
    </contour>
  </outline>
</glyph>
<glyph name="oslash.sc" format="1">
  <advance width="1084"/>
  <outline>
    <contour>
      <point x="676" y="1383" type="move" name="top"/>
    </contour>
    <contour>
      <point x="163" y="-142" type="line"/>
      <point x="233" y="-183" type="line"/>
      <point x="1010" y="1434" type="line"/>
      <point x="940" y="1475" type="line"/>
    </contour>
    <contour>
      <point x="479" y="-18" type="curve"/>
      <point x="843" y="-18"/>
      <point x="1072" y="349"/>
      <point x="1079" y="758" type="curve"/>
      <point x="1084" y="1070"/>
      <point x="961" y="1310"/>
      <point x="662" y="1310" type="curve"/>
      <point x="298" y="1310"/>
      <point x="69" y="952"/>
      <point x="62" y="542" type="curve"/>
      <point x="57" y="222"/>
      <point x="180" y="-18"/>
    </contour>
    <contour>
      <point x="491" y="33" type="curve"/>
      <point x="288" y="33"/>
      <point x="226" y="253"/>
      <point x="231" y="556" type="curve"/>
      <point x="237" y="923"/>
      <point x="400" y="1259"/>
      <point x="649" y="1259" type="curve"/>
      <point x="853" y="1259"/>
      <point x="914" y="1039"/>
      <point x="910" y="745" type="curve"/>
      <point x="904" y="377"/>
      <point x="741" y="33"/>
    </contour>
  </outline>
</glyph>
<glyph name="p.sc" format="1">
  <advance width="917"/>
  <outline>
    <contour>
      <point x="546" y="1383" type="move" name="top"/>
    </contour>
    <contour>
      <point x="-30" y="35" type="line"/>
      <point x="-35" y="0" type="line"/>
      <point x="433" y="0" type="line"/>
      <point x="438" y="35" type="line"/>
      <point x="246" y="65" type="line"/>
      <point x="414" y="1258" type="line"/>
      <point x="382" y="1235" type="line"/>
      <point x="430" y="1242"/>
      <point x="517" y="1253"/>
      <point x="566" y="1253" type="curve"/>
      <point x="730" y="1253"/>
      <point x="791" y="1104"/>
      <point x="789" y="949" type="curve"/>
      <point x="784" y="669"/>
      <point x="679" y="478"/>
      <point x="448" y="478" type="curve"/>
      <point x="406" y="478"/>
      <point x="335" y="485"/>
      <point x="289" y="496" type="curve"/>
      <point x="279" y="437" type="line"/>
      <point x="325" y="429"/>
      <point x="384" y="424"/>
      <point x="452" y="424" type="curve"/>
      <point x="746" y="424"/>
      <point x="952" y="611"/>
      <point x="957" y="919" type="curve"/>
      <point x="961" y="1194"/>
      <point x="842" y="1303"/>
      <point x="593" y="1303" type="curve"/>
      <point x="501" y="1303"/>
      <point x="431" y="1291"/>
      <point x="340" y="1291" type="curve"/>
      <point x="145" y="1291" type="line"/>
      <point x="140" y="1256" type="line"/>
      <point x="251" y="1230" type="line"/>
      <point x="88" y="61" type="line"/>
    </contour>
  </outline>
</glyph>
<glyph name="q.sc" format="1">
  <advance width="1084"/>
  <outline>
    <contour>
      <point x="733" y="-291" type="curve"/>
      <point x="834" y="-291"/>
      <point x="929" y="-256"/>
      <point x="970" y="-225" type="curve"/>
      <point x="968" y="-121" type="line"/>
      <point x="918" y="-143"/>
      <point x="838" y="-157"/>
      <point x="782" y="-157" type="curve"/>
      <point x="657" y="-157"/>
      <point x="543" y="-141"/>
      <point x="542" y="-6" type="curve"/>
      <point x="506" y="-12" type="line"/>
      <point x="492" y="-46"/>
      <point x="485" y="-77"/>
      <point x="485" y="-105" type="curve"/>
      <point x="483" y="-233"/>
      <point x="602" y="-291"/>
    </contour>
    <contour>
      <point x="479" y="-18" type="curve"/>
      <point x="843" y="-18"/>
      <point x="1072" y="349"/>
      <point x="1079" y="758" type="curve"/>
      <point x="1084" y="1070"/>
      <point x="961" y="1310"/>
      <point x="662" y="1310" type="curve"/>
      <point x="298" y="1310"/>
      <point x="69" y="952"/>
      <point x="62" y="542" type="curve"/>
      <point x="57" y="222"/>
      <point x="180" y="-18"/>
    </contour>
    <contour>
      <point x="491" y="33" type="curve"/>
      <point x="288" y="33"/>
      <point x="226" y="253"/>
      <point x="231" y="556" type="curve"/>
      <point x="237" y="923"/>
      <point x="400" y="1259"/>
      <point x="649" y="1259" type="curve"/>
      <point x="853" y="1259"/>
      <point x="914" y="1039"/>
      <point x="910" y="745" type="curve"/>
      <point x="904" y="377"/>
      <point x="741" y="33"/>
    </contour>
  </outline>
</glyph>
<glyph name="r.sc" format="1">
  <advance width="1050"/>
  <outline>
    <contour>
      <point x="603" y="1383" type="move" name="top"/>
    </contour>
    <contour>
      <point x="468" y="0" type="move" name="bottom"/>
    </contour>
    <contour>
      <point x="-30" y="35" type="line"/>
      <point x="-34" y="0" type="line"/>
      <point x="397" y="0" type="line"/>
      <point x="402" y="30" type="line"/>
      <point x="256" y="60" type="line"/>
      <point x="424" y="1265" type="line"/>
      <point x="409" y="1229" type="line"/>
      <point x="453" y="1238"/>
      <point x="518" y="1260"/>
      <point x="562" y="1260" type="curve"/>
      <point x="728" y="1260"/>
      <point x="806" y="1173"/>
      <point x="803" y="1026" type="curve"/>
      <point x="801" y="858"/>
      <point x="697" y="691"/>
      <point x="512" y="690" type="curve"/>
      <point x="479" y="690"/>
      <point x="358" y="690"/>
      <point x="320" y="693" type="curve"/>
      <point x="310" y="645" type="line"/>
      <point x="355" y="644"/>
      <point x="475" y="645"/>
      <point x="496" y="645" type="curve"/>
      <point x="580" y="620"/>
      <point x="613" y="341"/>
      <point x="672" y="193" type="curve"/>
      <point x="727" y="54"/>
      <point x="748" y="0"/>
      <point x="776" y="0" type="curve"/>
      <point x="976" y="0" type="line"/>
      <point x="981" y="29" type="line"/>
      <point x="903" y="33"/>
      <point x="885" y="96"/>
      <point x="819" y="253" type="curve"/>
      <point x="781" y="361"/>
      <point x="715" y="671"/>
      <point x="582" y="674" type="curve"/>
      <point x="561" y="651" type="line"/>
      <point x="821" y="692"/>
      <point x="959" y="832"/>
      <point x="962" y="1032" type="curve"/>
      <point x="965" y="1210"/>
      <point x="847" y="1304"/>
      <point x="570" y="1304" type="curve"/>
      <point x="493" y="1304"/>
      <point x="422" y="1292"/>
      <point x="347" y="1292" type="curve"/>
      <point x="146" y="1292" type="line"/>
      <point x="141" y="1257" type="line"/>
      <point x="261" y="1230" type="line"/>
      <point x="97" y="62" type="line"/>
    </contour>
  </outline>
</glyph>
<glyph name="s.sc" format="1">
  <advance width="807"/>
  <outline>
    <contour>
      <point x="565" y="1383" type="move" name="top"/>
    </contour>
    <contour>
      <point x="339" y="0" type="move" name="bottom"/>
    </contour>
    <contour>
      <point x="332" y="-18" type="curve"/>
      <point x="580" y="-18"/>
      <point x="763" y="135"/>
      <point x="761" y="364" type="curve"/>
      <point x="759" y="534"/>
      <point x="633" y="626"/>
      <point x="508" y="713" type="curve"/>
      <point x="385" y="798"/>
      <point x="280" y="866"/>
      <point x="281" y="1011" type="curve"/>
      <point x="282" y="1165"/>
      <point x="396" y="1255"/>
      <point x="526" y="1255" type="curve"/>
      <point x="619" y="1255"/>
      <point x="670" y="1226"/>
      <point x="702" y="1201" type="curve"/>
      <point x="711" y="1003" type="line"/>
      <point x="792" y="1003" type="line"/>
      <point x="829" y="1236" type="line"/>
      <point x="781" y="1264"/>
      <point x="659" y="1302"/>
      <point x="533" y="1302" type="curve"/>
      <point x="305" y="1302"/>
      <point x="130" y="1172"/>
      <point x="132" y="931" type="curve"/>
      <point x="133" y="746"/>
      <point x="280" y="657"/>
      <point x="402" y="571" type="curve"/>
      <point x="519" y="488"/>
      <point x="607" y="419"/>
      <point x="603" y="278" type="curve"/>
      <point x="597" y="107"/>
      <point x="459" y="29"/>
      <point x="338" y="29" type="curve"/>
      <point x="244" y="29"/>
      <point x="177" y="67"/>
      <point x="134" y="103" type="curve"/>
      <point x="128" y="307" type="line"/>
      <point x="44" y="307" type="line"/>
      <point x="1" y="60" type="line"/>
      <point x="44" y="29"/>
      <point x="204" y="-18"/>
    </contour>
  </outline>
</glyph>
<glyph name="schwa.sc" format="1">
  <advance width="1034"/>
  <outline>
    <contour>
      <point x="452" y="-18" type="curve"/>
      <point x="782" y="-18"/>
      <point x="1024" y="306"/>
      <point x="1028" y="772" type="curve"/>
      <point x="1030" y="1085"/>
      <point x="896" y="1310"/>
      <point x="617" y="1310" type="curve"/>
      <point x="398" y="1310"/>
      <point x="304" y="1242"/>
      <point x="214" y="1237" type="curve"/>
      <point x="174" y="980" type="line"/>
      <point x="257" y="980" type="line"/>
      <point x="320" y="1163" type="line"/>
      <point x="363" y="1205"/>
      <point x="462" y="1260"/>
      <point x="599" y="1260" type="curve"/>
      <point x="777" y="1260"/>
      <point x="867" y="1066"/>
      <point x="862" y="772" type="curve"/>
      <point x="862" y="732"/>
      <point x="859" y="695"/>
      <point x="857" y="663" type="curve"/>
      <point x="111" y="662" type="line"/>
      <point x="93" y="613"/>
      <point x="77" y="508"/>
      <point x="76" y="409" type="curve"/>
      <point x="75" y="137"/>
      <point x="236" y="-18"/>
    </contour>
    <contour>
      <point x="461" y="32" type="curve"/>
      <point x="296" y="32"/>
      <point x="227" y="202"/>
      <point x="229" y="385" type="curve"/>
      <point x="230" y="452"/>
      <point x="242" y="537"/>
      <point x="256" y="598" type="curve"/>
      <point x="853" y="598" type="line"/>
      <point x="806" y="256"/>
      <point x="664" y="32"/>
    </contour>
  </outline>
</glyph>
<glyph name="t.sc" format="1">
  <advance width="1053"/>
  <outline>
    <contour>
      <point x="659" y="1383" type="move" name="top"/>
    </contour>
    <contour>
      <point x="465" y="0" type="move" name="bottom"/>
    </contour>
    <contour>
      <point x="219" y="30" type="line"/>
      <point x="215" y="0" type="line"/>
      <point x="720" y="0" type="line"/>
      <point x="724" y="30" type="line"/>
      <point x="551" y="62" type="line"/>
      <point x="718" y="1244" type="line"/>
      <point x="980" y="1232" type="line"/>
      <point x="1013" y="934" type="line"/>
      <point x="1074" y="935" type="line"/>
      <point x="1107" y="1292" type="line"/>
      <point x="171" y="1292" type="line"/>
      <point x="113" y="935" type="line"/>
      <point x="178" y="937" type="line"/>
      <point x="280" y="1232" type="line"/>
      <point x="559" y="1244" type="line"/>
      <point x="391" y="62" type="line"/>
    </contour>
  </outline>
</glyph>
<glyph name="thorn.sc" format="1">
  <advance width="926"/>
  <outline>
    <contour>
      <point x="-30" y="35" type="line"/>
      <point x="-35" y="0" type="line"/>
      <point x="383" y="0" type="line"/>
      <point x="388" y="35" type="line"/>
      <point x="255" y="62" type="line"/>
      <point x="287" y="298" type="line"/>
      <point x="332" y="291"/>
      <point x="387" y="286"/>
      <point x="449" y="286" type="curve"/>
      <point x="730" y="286"/>
      <point x="935" y="470"/>
      <point x="939" y="707" type="curve"/>
      <point x="943" y="921"/>
      <point x="799" y="1031"/>
      <point x="557" y="1031" type="curve"/>
      <point x="482" y="1031"/>
      <point x="445" y="1027"/>
      <point x="387" y="1018" type="curve"/>
      <point x="416" y="1230" type="line"/>
      <point x="529" y="1257" type="line"/>
      <point x="534" y="1292" type="line"/>
      <point x="144" y="1292" type="line"/>
      <point x="139" y="1257" type="line"/>
      <point x="258" y="1230" type="line"/>
      <point x="97" y="62" type="line"/>
    </contour>
    <contour>
      <point x="446" y="340" type="curve"/>
      <point x="407" y="340"/>
      <point x="342" y="347"/>
      <point x="295" y="356" type="curve"/>
      <point x="380" y="964" type="line"/>
      <point x="426" y="974"/>
      <point x="480" y="980"/>
      <point x="526" y="980" type="curve"/>
      <point x="706" y="980"/>
      <point x="778" y="880"/>
      <point x="775" y="722" type="curve"/>
      <point x="772" y="506"/>
      <point x="667" y="340"/>
    </contour>
  </outline>
</glyph>
<glyph name="uhorn.sc" format="1">
  <advance width="1228"/>
  <outline>
    <contour>
      <point x="688" y="1383" type="move" name="top"/>
    </contour>
    <contour>
      <point x="514" y="0" type="move" name="bottom"/>
    </contour>
    <contour>
      <point x="515" y="-16" type="curve"/>
      <point x="789" y="-16"/>
      <point x="933" y="149"/>
      <point x="978" y="480" type="curve"/>
      <point x="1080" y="1237" type="line"/>
      <point x="1190" y="1263" type="line"/>
      <point x="1194" y="1292" type="line"/>
      <point x="891" y="1292" type="line"/>
      <point x="887" y="1263" type="line"/>
      <point x="1009" y="1237" type="line"/>
      <point x="918" y="480" type="line" smooth="yes"/>
      <point x="884" y="190"/>
      <point x="745" y="56"/>
      <point x="547" y="56" type="curve"/>
      <point x="356" y="56"/>
      <point x="291" y="173"/>
      <point x="290" y="331" type="curve"/>
      <point x="290" y="374"/>
      <point x="294" y="420"/>
      <point x="300" y="469" type="curve"/>
      <point x="404" y="1237" type="line"/>
      <point x="527" y="1263" type="line"/>
      <point x="531" y="1292" type="line"/>
      <point x="143" y="1292" type="line"/>
      <point x="139" y="1263" type="line"/>
      <point x="244" y="1238" type="line"/>
      <point x="139" y="463" type="line" smooth="yes"/>
      <point x="134" y="424"/>
      <point x="133" y="388"/>
      <point x="132" y="353" type="curve"/>
      <point x="133" y="121"/>
      <point x="250" y="-16"/>
    </contour>
    <contour>
      <point x="1071" y="1312" type="curve"/>
      <point x="1084" y="1261" type="line"/>
      <point x="1269" y="1254"/>
      <point x="1349" y="1330"/>
      <point x="1351" y="1436" type="curve"/>
      <point x="1351" y="1457"/>
      <point x="1341" y="1471"/>
      <point x="1318" y="1486" type="curve"/>
      <point x="1215" y="1478" type="line"/>
      <point x="1232" y="1471"/>
      <point x="1252" y="1461"/>
      <point x="1252" y="1468" type="curve"/>
      <point x="1251" y="1391"/>
      <point x="1208" y="1310"/>
    </contour>
  </outline>
</glyph>
<glyph name="v.sc" format="1">
  <advance width="991"/>
  <outline>
    <contour>
      <point x="665" y="1383" type="move" name="top"/>
    </contour>
    <contour>
      <point x="178" y="1240" type="line"/>
      <point x="367" y="-10" type="line"/>
      <point x="493" y="-5" type="line"/>
      <point x="1045" y="1240" type="line"/>
      <point x="1144" y="1263" type="line"/>
      <point x="1148" y="1292" type="line"/>
      <point x="818" y="1292" type="line"/>
      <point x="814" y="1263" type="line"/>
      <point x="961" y="1240" type="line"/>
      <point x="541" y="234" type="line"/>
      <point x="459" y="49" type="line"/>
      <point x="492" y="59" type="line"/>
      <point x="473" y="242" type="line"/>
      <point x="339" y="1238" type="line"/>
      <point x="491" y="1262" type="line"/>
      <point x="496" y="1292" type="line"/>
      <point x="91" y="1292" type="line"/>
      <point x="88" y="1262" type="line"/>
    </contour>
  </outline>
</glyph>
<glyph name="w.sc" format="1">
  <advance width="1501"/>
  <outline>
    <contour>
      <point x="888" y="1383" type="move" name="top"/>
    </contour>
    <contour>
      <point x="704" y="0" type="move" name="bottom"/>
    </contour>
    <contour>
      <point x="175" y="1240" type="line"/>
      <point x="333" y="-11" type="line"/>
      <point x="460" y="-6" type="line"/>
      <point x="921" y="1149" type="line"/>
      <point x="843" y="1148" type="line"/>
      <point x="489" y="216" type="line"/>
      <point x="423" y="49" type="line"/>
      <point x="459" y="58" type="line"/>
      <point x="432" y="295" type="line"/>
      <point x="335" y="1238" type="line"/>
      <point x="482" y="1262" type="line"/>
      <point x="485" y="1292" type="line"/>
      <point x="88" y="1292" type="line"/>
      <point x="84" y="1262" type="line"/>
    </contour>
    <contour>
      <point x="775" y="1240" type="line"/>
      <point x="915" y="-11" type="line"/>
      <point x="1042" y="-6" type="line"/>
      <point x="1562" y="1240" type="line"/>
      <point x="1661" y="1263" type="line"/>
      <point x="1665" y="1292" type="line"/>
      <point x="1328" y="1292" type="line"/>
      <point x="1324" y="1263" type="line"/>
      <point x="1478" y="1240" type="line"/>
      <point x="1081" y="228" type="line"/>
      <point x="1008" y="49" type="line"/>
      <point x="1038" y="58" type="line"/>
      <point x="1014" y="295" type="line"/>
      <point x="935" y="1238" type="line"/>
      <point x="1065" y="1262" type="line"/>
      <point x="1072" y="1292" type="line"/>
      <point x="667" y="1292" type="line"/>
      <point x="663" y="1262" type="line"/>
    </contour>
  </outline>
</glyph>
<glyph name="x.sc" format="1">
  <advance width="1035"/>
  <outline>
    <contour>
      <point x="-50" y="30" type="line"/>
      <point x="-52" y="0" type="line"/>
      <point x="297" y="0" type="line"/>
      <point x="301" y="30" type="line"/>
      <point x="163" y="56" type="line"/>
      <point x="527" y="604" type="line"/>
      <point x="578" y="648" type="line"/>
      <point x="1018" y="1237" type="line"/>
      <point x="1138" y="1263" type="line"/>
      <point x="1141" y="1292" type="line"/>
      <point x="795" y="1292" type="line"/>
      <point x="791" y="1263" type="line"/>
      <point x="926" y="1235" type="line"/>
      <point x="566" y="710" type="line"/>
      <point x="512" y="665" type="line"/>
      <point x="69" y="55" type="line"/>
    </contour>
    <contour>
      <point x="555" y="30" type="line"/>
      <point x="551" y="0" type="line"/>
      <point x="980" y="0" type="line"/>
      <point x="984" y="30" type="line"/>
      <point x="868" y="57" type="line"/>
      <point x="603" y="687" type="line"/>
      <point x="591" y="712" type="line"/>
      <point x="400" y="1237" type="line"/>
      <point x="538" y="1263" type="line"/>
      <point x="542" y="1292" type="line"/>
      <point x="120" y="1292" type="line"/>
      <point x="116" y="1263" type="line"/>
      <point x="228" y="1235" type="line"/>
      <point x="477" y="598" type="line"/>
      <point x="485" y="584" type="line"/>
      <point x="690" y="55" type="line"/>
    </contour>
  </outline>
</glyph>
<glyph name="y.sc" format="1">
  <advance width="919"/>
  <outline>
    <contour>
      <point x="146" y="1292" type="move" name="topleft"/>
    </contour>
    <contour>
      <point x="620" y="1383" type="move" name="top"/>
    </contour>
    <contour>
      <point x="420" y="0" type="move" name="bottom"/>
    </contour>
    <contour>
      <point x="174" y="30" type="line"/>
      <point x="170" y="0" type="line"/>
      <point x="674" y="0" type="line"/>
      <point x="678" y="30" type="line"/>
      <point x="500" y="59" type="line"/>
      <point x="576" y="608" type="line"/>
      <point x="526" y="489" type="line"/>
      <point x="972" y="1245" type="line"/>
      <point x="1069" y="1263" type="line"/>
      <point x="1072" y="1292" type="line"/>
      <point x="768" y="1292" type="line"/>
      <point x="764" y="1263" type="line"/>
      <point x="885" y="1244" type="line"/>
      <point x="597" y="718" type="line"/>
      <point x="506" y="555" type="line"/>
      <point x="553" y="572" type="line"/>
      <point x="502" y="733" type="line"/>
      <point x="326" y="1243" type="line"/>
      <point x="461" y="1263" type="line"/>
      <point x="465" y="1292" type="line"/>
      <point x="75" y="1292" type="line"/>
      <point x="70" y="1263" type="line"/>
      <point x="160" y="1244" type="line"/>
      <point x="444" y="480" type="line"/>
      <point x="424" y="623" type="line"/>
      <point x="346" y="58" type="line"/>
    </contour>
  </outline>
</glyph>
<glyph name="z.sc" format="1">
  <advance width="972"/>
  <outline>
    <contour>
      <point x="580" y="1383" type="move" name="top"/>
    </contour>
    <contour>
      <point x="439" y="0" type="move" name="bottom"/>
    </contour>
    <contour>
      <point x="-12" y="25" type="line"/>
      <point x="0" y="0" type="line"/>
      <point x="836" y="0" type="line"/>
      <point x="909" y="309" type="line"/>
      <point x="843" y="324" type="line"/>
      <point x="738" y="79" type="line"/>
      <point x="158" y="49" type="line"/>
      <point x="292" y="194" type="line"/>
      <point x="1017" y="1268" type="line"/>
      <point x="1005" y="1292" type="line"/>
      <point x="230" y="1292" type="line"/>
      <point x="181" y="1000" type="line"/>
      <point x="243" y="994" type="line"/>
      <point x="343" y="1229" type="line"/>
      <point x="845" y="1243" type="line"/>
      <point x="697" y="1083" type="line"/>
    </contour>
  </outline>
</glyph>
